<?xml version="1.0" encoding="utf-8"?>
<!-- Svg Vector Icons : http://www.onlinewebfonts.com/icon -->
<!DOCTYPE svg PUBLIC "-//W3C//DTD SVG 1.1//EN" "http://www.w3.org/Graphics/SVG/1.1/DTD/svg11.dtd">
<svg version="1.1" xmlns="http://www.w3.org/2000/svg" xmlns:xlink="http://www.w3.org/1999/xlink" x="0px" y="0px" viewBox="0 0 1000 1000" enable-background="new 0 0 1000 1000" xml:space="preserve">
<metadata> Svg Vector Icons : http://www.onlinewebfonts.com/icon </metadata>
<g><path d="M650.6,793.8c-9.4,12.6-18.4,24.6-27.2,36c90.9,10.3,153.5,31.4,153.5,55.9c0,34.5-124,62.6-277,62.6c-153,0-277-28-277-62.6c0-24.5,62.6-45.7,153.5-55.9c-8.8-11.4-17.9-23.4-27.2-36c-100.5,17.6-168.9,52.1-168.9,91.9C180.4,943.3,323.5,990,500,990c176.5,0,319.6-46.7,319.6-104.3C819.6,845.9,751.2,811.4,650.6,793.8z M691.7,343.6C691.7,240,605.9,156,500,156s-191.7,84-191.7,187.7c0,103.6,85.8,187.7,191.7,187.7C605.9,531.3,691.7,447.3,691.7,343.6z M350.9,343.6c0-80.6,66.8-146,149.1-146s149.1,65.3,149.1,146c0,80.6-66.8,146-149.1,146S350.9,424.2,350.9,343.6z M840.9,343.6C840.9,159.4,688.3,10,500,10c-188.3,0-340.9,149.4-340.9,333.6c0,184.3,340.9,583.8,340.9,583.8S840.9,527.9,840.9,343.6z M500,51.7c164.7,0,298.3,130.7,298.3,291.9c0,161.2-298.3,521.3-298.3,521.3S201.7,504.8,201.7,343.6C201.7,182.4,335.3,51.7,500,51.7z"/></g>
</svg>