<?xml version="1.0" encoding="utf-8"?>
<!-- Svg Vector Icons : http://www.onlinewebfonts.com/icon -->
<!DOCTYPE svg PUBLIC "-//W3C//DTD SVG 1.1//EN" "http://www.w3.org/Graphics/SVG/1.1/DTD/svg11.dtd">
<svg version="1.1" xmlns="http://www.w3.org/2000/svg" xmlns:xlink="http://www.w3.org/1999/xlink" x="0px" y="0px" viewBox="0 0 1000 1000" enable-background="new 0 0 1000 1000" xml:space="preserve">
<metadata> Svg Vector Icons : http://www.onlinewebfonts.com/icon </metadata>
<g><path d="M806.3,867.5v61.3c0,33.7-27.6,61.3-61.3,61.3H255c-33.7,0-61.3-27.6-61.3-61.3v-61.3C91.9,867.5,10,785.6,10,683.8V500c0-101.8,81.9-183.8,183.8-183.8l0,0v-245c0-33.7,27.6-61.3,61.3-61.3h490c33.7,0,61.3,27.6,61.3,61.3v245l0,0C908.1,316.3,990,398.2,990,500v183.8C990,785.6,908.1,867.5,806.3,867.5z M255,928.8h490v-245H255V928.8z M745,71.3H255v245h61.3V132.5h367.5v183.8H745V71.3z M377.5,193.8v122.5h245V193.8H377.5z M745,438.8h-61.3V500H745V438.8z M867.5,438.8h-61.3V500h61.3V438.8z M867.5,622.5c0-33.7-27.6-61.3-61.3-61.3H193.8c-33.7,0-61.3,27.6-61.3,61.3V745h61.3v-61.3c0-33.7,27.6-61.3,61.3-61.3h490c33.7,0,61.3,27.6,61.3,61.3V745h61.3V622.5z"/></g>
</svg>